<svg width="17" height="18" xmlns="http://www.w3.org/2000/svg"><path d="M15.808 14.578a2.684 2.684 0 0 1-1.667 2.108c-.44.18-.916.235-1.392.18a3.643 3.643 0 0 1-1.392-.468c-.659-.36-1.319-.919-2.088-1.748 1.209-1.46 1.941-2.793 2.216-3.982a4.437 4.437 0 0 0 .092-1.532 2.904 2.904 0 0 0-.495-1.225C10.515 7.1 9.562 6.63 8.5 6.63c-1.062 0-2.015.487-2.583 1.28-.256.36-.42.775-.494 1.225a3.69 3.69 0 0 0 .092 1.532c.274 1.19 1.025 2.541 2.216 4-.752.829-1.429 1.388-2.088 1.748-.477.27-.934.415-1.392.469-.472.052-.95-.01-1.392-.18a2.686 2.686 0 0 1-1.666-2.108c-.055-.45-.018-.9.165-1.406.054-.18.147-.36.238-.576.128-.288.275-.595.42-.901l.02-.036a195.005 195.005 0 0 1 4.03-8.091l.054-.109c.147-.27.293-.558.44-.829.146-.288.311-.558.513-.793a1.928 1.928 0 0 1 1.465-.667c.567 0 1.08.235 1.464.667.202.235.367.505.514.793.146.27.292.559.44.828l.055.109a236.91 236.91 0 0 1 4.01 8.109v.017c.147.288.275.613.421.901.092.217.184.397.238.577.146.47.201.92.128 1.388zM8.5 13.731c-.989-1.226-1.63-2.38-1.85-3.352-.091-.415-.11-.775-.055-1.1.037-.287.147-.54.293-.756.348-.486.934-.793 1.612-.793s1.282.289 1.612.793c.147.217.256.469.293.757.054.324.036.703-.055 1.1-.22.954-.86 2.107-1.85 3.35zm8.26-.937c-.09-.216-.183-.45-.274-.648-.147-.325-.293-.631-.422-.92l-.018-.017a186.897 186.897 0 0 0-4.048-8.145l-.054-.108c-.147-.27-.293-.559-.44-.847-.183-.324-.366-.667-.659-.991A2.976 2.976 0 0 0 8.52 0c-.916 0-1.74.396-2.345 1.081a6.159 6.159 0 0 0-.66.991c-.146.288-.292.576-.44.847l-.054.107a209.71 209.71 0 0 0-4.047 8.145l-.018.036c-.128.288-.275.595-.422.92-.098.213-.19.43-.275.648-.238.667-.311 1.297-.22 1.946a3.84 3.84 0 0 0 2.381 2.99c.476.2.97.289 1.484.289a4.888 4.888 0 0 0 2.308-.648c.75-.415 1.464-1.01 2.27-1.874.806.865 1.539 1.46 2.271 1.874A4.888 4.888 0 0 0 13.06 18c.513 0 1.025-.09 1.483-.288a3.834 3.834 0 0 0 2.381-2.991c.147-.63.074-1.26-.164-1.927z" fill="#E0565B" fill-rule="nonzero"/></svg>