<svg xmlns="http://www.w3.org/2000/svg" width="100%" height="100%" viewBox="0 0 126 116"><g fill-rule="nonzero" fill="none"><path d="M63.36 83.42L66.44 77 56.07 24.08C53.19 9.2 56.63 2.69 68.33.45v-.2H57.52c-3.13 1.55-9.75 6.26-6 23.92l11.84 59.25z" fill="#8EC089"/><path d="M57.24 96.2l3.06-6.38-13.68-66.07c-2.56-12.82-1.47-19.5 2.8-23.3v-.2h-7.28C39.88 5 39.2 9.83 41.78 22.5l15.46 73.7z" fill="#E85F24"/><path d="M23.49.25h-7.66v.2c3.45 4.13 4.44 9.22 7.15 20.36l20.46 94.64H48L27.5 20.52C24.62 8.34 24.14 5 23.49.25z" fill="#245ABC"/><path d="M51.15 108.94l3-6.31-17-80.3c-3-12.47-2.31-18.18-1.1-22.08h-6.6c-.11 5.09.15 9.29 2.58 20l19.12 88.69z" fill="#1C4695"/><path d="M8.19.25H0v.2c7.48 2.94 11.16 8.64 14.11 21.91l20.15 93.09h4.59L18.56 21.63C15.07 5.55 11.39 2.57 8.19.25z" fill="#318EEE"/><g><path d="M84.33 41.68l.3.2C96 14.86 99 7.47 103.7.45v-.2h-9.25v.28c.96 10.77-2.78 20.68-10.12 41.15z" fill="#E85F24"/><path d="M112.42.25c-9.63 5.63-15.37 16.09-27.48 41.83l.3.2c13.89-26 21.83-36.43 39.78-41.83v-.2h-12.6z" fill="#1C4695"/><path d="M83.71 41.28l.31.2C91.27 17.39 93.6 6.73 87.2.25h-9.07v.2C88.25 4 90.52 14.36 83.71 41.28z" fill="#8EC089"/></g></g></svg>
